inDegrees=no
num_controls=7
num_derivatives=13
num_iterations=114
num_multipliers=7
num_parameters=0
num_slacks=7
num_states=26
objective=0.445093
objective_accelerations=0.057848
objective_balance=0.003539
objective_effort=0.023206
objective_height=0.354998
objective_ligament=0.005502
solver_duration=1816.162003
status=Solve_Succeeded
success=true
DataType=double
version=3
OpenSimVersion=4.5
endheader
time	/jointset/ground_pelvis/pelvis_tilt/value	/jointset/ground_pelvis/pelvis_tx/value	/jointset/ground_pelvis/pelvis_ty/value	/jointset/hip_l/hip_flexion_l/value	/jointset/hip_l/hip_adduction_l/value	/jointset/hip_l/hip_rotation_l/value	/jointset/back/lumbar_extension/value	/jointset/patellofemoral_l/patellar_flexion_l/value	/jointset/knee_l/knee_flexion_l/value	/jointset/knee_l/knee_adduction_l/value	/jointset/knee_l/knee_rotation_l/value	/jointset/ankle_l/ankle_angle_l/value	/jointset/subtalar_l/subtalar_angle_l/value	/jointset/ground_pelvis/pelvis_tilt/speed	/jointset/ground_pelvis/pelvis_tx/speed	/jointset/ground_pelvis/pelvis_ty/speed	/jointset/hip_l/hip_flexion_l/speed	/jointset/hip_l/hip_adduction_l/speed	/jointset/hip_l/hip_rotation_l/speed	/jointset/back/lumbar_extension/speed	/jointset/patellofemoral_l/patellar_flexion_l/speed	/jointset/knee_l/knee_flexion_l/speed	/jointset/knee_l/knee_adduction_l/speed	/jointset/knee_l/knee_rotation_l/speed	/jointset/ankle_l/ankle_angle_l/speed	/jointset/subtalar_l/subtalar_angle_l/speed	/forceset/tau_hip_flexion_l	/forceset/tau_hip_adduction_l	/forceset/tau_hip_rotation_l	/forceset/tau_knee_flexion_l	/forceset/tau_ankle_angle_l	/forceset/tau_subtalar_angle_l	/forceset/tau_lumbar_extension	lambda_cid13_p0	lambda_cid13_p1	lambda_cid13_p2	lambda_cid13_p3	lambda_cid13_p4	lambda_cid13_p5	lambda_cid14_p0	/jointset/ground_pelvis/pelvis_tilt/accel	/jointset/ground_pelvis/pelvis_tx/accel	/jointset/ground_pelvis/pelvis_ty/accel	/jointset/hip_l/hip_flexion_l/accel	/jointset/hip_l/hip_adduction_l/accel	/jointset/hip_l/hip_rotation_l/accel	/jointset/back/lumbar_extension/accel	/jointset/patellofemoral_l/patellar_flexion_l/accel	/jointset/knee_l/knee_flexion_l/accel	/jointset/knee_l/knee_adduction_l/accel	/jointset/knee_l/knee_rotation_l/accel	/jointset/ankle_l/ankle_angle_l/accel	/jointset/subtalar_l/subtalar_angle_l/accel	gamma_cid13_p0	gamma_cid13_p1	gamma_cid13_p2	gamma_cid13_p3	gamma_cid13_p4	gamma_cid13_p5	gamma_cid14_p0
0	-0.03984516637794284	0.0690552197124441	0.8959637438474669	0.1955287580552426	-0.321871955909418	-0.4860851034616486	-0.1379045077516729	0.0701528807908486	0.07015288079084844	-0.1745329132997224	-0.1204167661871602	-0.06701059314715049	0.003994979222068974	0	0	0	0	0	0	0	0	0	0	0	0	0	0.1074697682654557	-0.1042423858580433	-0.03085112647182562	-0.2359473831923025	0.1932262093988007	-0.01243769253039636	-0.05223027178099032	26.47576953412154	-2.316517041420837	3.554345563829823	-1.202505943519591	-515.0028769033261	-83.66238285994933	-39.98360360375253	-4.517700910740619	-1.843449313880174	-0.9854294409868494	12.65302478783667	-2.161898079455085	3.408135945874566	-2.823514523073382	10.31397780767212	10.31397780767216	0.6594616754217342	-0.8131999834453641	2.364164927032292	-1.085709110826016	-3.058722858884725e-08	1.28975039878946e-07	1.341430843213928e-07	1.134178807624177e-08	-1.167636703310556e-08	-4.536712261798084e-08	-7.364543588487992e-09
0.01	-0.04006106147655528	0.06896448688833323	0.8959158974201276	0.1961408600496048	-0.3219783048833735	-0.4859141604370263	-0.1380518522340047	0.07065389908010436	0.07065389908009609	-0.1745033001412647	-0.1204513375626886	-0.06689697716434533	0.003940067186232178	-0.04300585130844772	-0.01804464891088821	-0.009538360433914882	0.121878549627089	-0.02115586097441697	0.03402516894832598	-0.02923492903786185	0.09975213904068381	0.09975213904068329	0.005918774855535334	-0.006887659288656456	0.02264493794984658	-0.01090103437887922	0.1043267843799862	-0.103607417323044	-0.03038356398272885	-0.2330718015024978	0.1897450365133439	-0.01054792020341935	-0.04939894103212128	25.40087040448364	-2.944396638377313	3.649144455737597	-1.249519733565156	-515.9073419790598	-84.74767816302329	-39.99374308207299	-4.166064824494813	-1.769683024680223	-0.9334029247697324	11.87397950533327	-2.075374260464296	3.375177067843829	-2.938386979822777	9.738105603873873	9.738105603873581	0.5575443562817969	-0.622543374735136	2.202921098398775	-1.080130473129601	-7.087681060734995e-08	1.499499732166382e-07	2.0731214970381e-07	4.824924855207296e-08	-2.420114954877047e-07	-9.349967609171554e-08	-1.375509228977591e-08
0.02	-0.04070182260497252	0.06869636550611607	0.8957735946724136	0.1979554894312741	-0.3222928012978789	-0.4854078717832125	-0.1384845269838515	0.07213889349007067	0.07213889349007063	-0.1744146074411278	-0.1205539844257644	-0.06655925922815405	0.003778578832264437	-0.08497320596080289	-0.03547771162125878	-0.01889126407488921	0.2405054774617142	-0.0416294881100051	0.06706912583793784	-0.0570660535029286	0.196795224145661	0.1967952241456515	0.01181590833756406	-0.01361509750368537	0.0448203906772097	-0.02131526362618804	0.1011838004944891	-0.1029724487880453	-0.02991600149348133	-0.2301962198127464	0.186263863627871	-0.00865814787645329	-0.04656761028325872	24.38988302049864	-3.58475083277499	3.747400125379328	-1.456257969037246	-515.8783990134395	-85.66790387246515	-40.02358314151137	-4.310001579522091	-1.721132073776662	-0.9483380823987373	12.00270042934392	-2.02545131168932	3.211893534131739	-2.542753608514345	9.772167020530807	9.772167020529135	0.6551334007204059	-0.7811557687198587	2.270267882535583	-0.9883480845119454	-1.111663926258526e-07	1.709249065543303e-07	2.804812150862272e-07	8.515670902790414e-08	-4.723466239423038e-07	-1.416322295654503e-07	-2.014564099106384e-08
0.03	-0.0417572475470669	0.06825681133167116	0.895538388874108	0.2009410598191956	-0.3228085580114878	-0.4845759292495386	-0.1391876208657788	0.07458145256022727	0.07458145256023353	-0.1742668889518824	-0.1207232482537731	-0.06600205564836088	0.003515474926144874	-0.1258944446448252	-0.05234450612979111	-0.02814021959922541	0.3560515574711237	-0.06140267371400792	0.09919798689521914	-0.08329602788886623	0.2912689419620808	0.2912689419620739	0.01771168132980348	-0.0201731464166456	0.06652701228535063	-0.0312288918592325	0.09607839527700172	-0.09914001501242733	-0.02899944653404356	-0.2246989028380308	0.1797262703801639	-0.007871076843677416	-0.0423598304345403	22.3563030266587	-3.660826329510952	3.862690398034181	-0.6949028696413163	-515.7759602743057	-85.23486766198091	-40.07190890827887	-3.95059620303179	-1.656143388273389	-0.9118182893718773	11.24698582592956	-1.935422836872519	3.195136287687915	-2.624615104548366	9.217831028446478	9.217831028448009	0.5544440593377258	-0.5834165822065702	2.106860177100681	-0.9814347024624671	-1.41323328524269e-07	1.962230236934851e-07	3.389397211551192e-07	1.137444801483717e-07	-6.407434562517707e-07	-1.772864067199976e-07	-2.407001303475523e-08
